<?xml version="1.0" encoding="UTF-8"?>
<svg width="111" height="34" version="1.1" viewBox="0 0 111 34" xmlns="http://www.w3.org/2000/svg">
 <g transform="translate(0 29)" fill="#fff" aria-label="Isotipo">
  <path d="m2.821 0h4.774v-21.7h-4.774z"/>
  <path d="m18.352 0.31c3.596 0 6.355-1.674 6.355-5.363v-0.062c0-3.038-2.697-4.154-5.022-4.929-1.798-0.62-3.379-1.054-3.379-1.984v-0.062c0-0.651 0.589-1.147 1.736-1.147 1.209 0 2.852 0.589 4.495 1.55l1.798-3.255c-1.798-1.209-4.092-1.922-6.2-1.922-3.348 0-6.076 1.891-6.076 5.27v0.062c0 3.224 2.635 4.309 4.96 4.991 1.829 0.558 3.441 0.899 3.441 1.922v0.062c0 0.744-0.62 1.24-1.984 1.24-1.55 0-3.441-0.682-5.239-1.984l-2.015 3.1c2.201 1.736 4.805 2.511 7.13 2.511z"/>
  <path d="m36.239 0.372c5.177 0 9.021-3.875 9.021-8.649v-0.062c0-4.774-3.813-8.587-8.959-8.587-5.177 0-9.021 3.875-9.021 8.649v0.062c0 4.774 3.813 8.587 8.959 8.587zm0.062-4.061c-2.604 0-4.371-2.139-4.371-4.588v-0.062c0-2.449 1.612-4.526 4.309-4.526 2.604 0 4.371 2.139 4.371 4.588v0.062c0 2.449-1.612 4.526-4.309 4.526z"/>
  <path d="m54.281 0.279c1.581 0 2.728-0.372 3.72-0.961v-3.782c-0.682 0.372-1.457 0.589-2.325 0.589-1.054 0-1.519-0.527-1.519-1.612v-7.099h3.906v-4.03h-3.906v-4.247h-4.712v4.247h-1.984v4.03h1.984v7.874c0 3.844 1.953 4.991 4.836 4.991z"/>
  <path d="m61.628-18.445h4.96v-4.185h-4.96zm0.124 18.445h4.712v-16.616h-4.712z"/>
  <path d="m70.897 4.96h4.712v-7.13c1.116 1.333 2.666 2.48 5.177 2.48 3.937 0 7.564-3.038 7.564-8.587v-0.062c0-5.549-3.689-8.587-7.564-8.587-2.449 0-4.03 1.147-5.177 2.697v-2.387h-4.712zm8.68-8.649c-2.201 0-4.03-1.829-4.03-4.588v-0.062c0-2.759 1.829-4.588 4.03-4.588s4.061 1.829 4.061 4.588v0.062c0 2.79-1.86 4.588-4.061 4.588z"/>
  <path d="m99.975 0.372c5.177 0 9.021-3.875 9.021-8.649v-0.062c0-4.774-3.813-8.587-8.959-8.587-5.177 0-9.021 3.875-9.021 8.649v0.062c0 4.774 3.813 8.587 8.959 8.587zm0.062-4.061c-2.604 0-4.371-2.139-4.371-4.588v-0.062c0-2.449 1.612-4.526 4.309-4.526 2.604 0 4.371 2.139 4.371 4.588v0.062c0 2.449-1.612 4.526-4.309 4.526z"/>
 </g>
</svg>
