<?xml version="1.0" encoding="UTF-8"?>
<svg width="159" height="34" version="1.1" viewBox="0 0 159 34" xmlns="http://www.w3.org/2000/svg">
 <defs>
  <style>.a{fill:#fff;font-size:31px;font-family:GothamBold, Gotham;}</style>
 </defs>
 <g class="a" transform="translate(0 29)" fill="#fff" aria-label="Tu PruTec">
  <path d="m7.657 0h4.774v-17.298h6.603v-4.402h-17.98v4.402h6.603z"/>
  <path d="m26.164 0.31c2.387 0 3.782-1.271 4.867-2.666v2.356h4.712v-16.616h-4.712v9.269c0 2.232-1.147 3.379-2.945 3.379s-2.852-1.147-2.852-3.379v-9.269h-4.712v10.757c0 3.813 2.077 6.169 5.642 6.169z"/>
  <path d="m49.755 0h4.774v-6.51h3.627c4.867 0 8.773-2.604 8.773-7.626v-0.062c0-4.433-3.131-7.502-8.308-7.502h-8.866zm4.774-10.757v-6.634h3.689c2.387 0 3.875 1.147 3.875 3.286v0.062c0 1.86-1.395 3.286-3.782 3.286z"/>
  <path d="m69.967 0h4.712v-6.138c0-3.968 1.922-5.859 5.053-5.859h0.248v-4.929c-2.79-0.124-4.34 1.364-5.301 3.658v-3.348h-4.712z"/>
  <path d="m88.443 0.31c2.387 0 3.782-1.271 4.867-2.666v2.356h4.712v-16.616h-4.712v9.269c0 2.232-1.147 3.379-2.945 3.379s-2.852-1.147-2.852-3.379v-9.269h-4.712v10.757c0 3.813 2.077 6.169 5.642 6.169z"/>
  <path d="m107.79 0h4.774v-17.298h6.603v-4.402h-17.98v4.402h6.603z"/>
  <path d="m126.94 0.372c3.007 0 5.239-1.178 6.789-3.1l-2.697-2.387c-1.302 1.209-2.449 1.705-4.03 1.705-2.108 0-3.596-1.116-4.061-3.255h11.563c0.031-0.434 0.062-0.868 0.062-1.24 0-4.712-2.542-9.021-8.091-9.021-4.836 0-8.215 3.906-8.215 8.649v0.062c0 5.084 3.689 8.587 8.68 8.587zm-4.061-9.982c0.372-2.139 1.643-3.534 3.596-3.534 1.984 0 3.224 1.426 3.503 3.534z"/>
  <path d="m145.92 0.372c3.317 0 5.177-1.271 6.789-3.038l-2.759-2.79c-1.147 1.085-2.232 1.767-3.813 1.767-2.573 0-4.216-2.046-4.216-4.588v-0.062c0-2.449 1.674-4.526 4.03-4.526 1.674 0 2.728 0.713 3.782 1.829l2.883-3.1c-1.55-1.736-3.503-2.79-6.634-2.79-5.084 0-8.711 3.906-8.711 8.649v0.062c0 4.743 3.658 8.587 8.649 8.587z"/>
 </g>
</svg>
